<?xml version="1.0" encoding="iso-8859-1"?>
<!-- Generator: Adobe Illustrator 16.0.0, SVG Export Plug-In . SVG Version: 6.00 Build 0)  -->
<!DOCTYPE svg PUBLIC "-//W3C//DTD SVG 1.1//EN" "http://www.w3.org/Graphics/SVG/1.1/DTD/svg11.dtd">
<svg version="1.1" id="Capa_1" xmlns="http://www.w3.org/2000/svg" xmlns:xlink="http://www.w3.org/1999/xlink" x="0px" y="0px"
	 width="32px" height="31.999px" viewBox="0 0 32 31.999" style="enable-background:new 0 0 32 31.999;" xml:space="preserve">
<g>
	<path d="M31.527,23.533c-1.184-2.537-9.388-2.791-9.388-2.791s7.993-4.312,3.996-9.071c-3.997-4.757-3.39-9.196-3.362-10.593
		c-1.384,0.478-3.361,2.537-3.361,2.537S18.629,3.065,19.031,0c-12.76,8.166-6.05,20.691-4.439,23.48
		c-1.357-0.662-2.451-1.071-2.368-0.971c-0.135,0.014-0.262,0.055-0.375,0.118c-2.72-1.733-5.049-4.033-5.821-5.394
		c-0.329-0.577-0.49-2.18-0.661-3.875c-0.198-1.971-0.419-4.163-0.96-5.367C4.48,7.911,4.529,7.804,4.529,7.683
		c0-0.256-0.208-0.464-0.465-0.464c-0.257,0-0.465,0.21-0.465,0.466c0,0.257,0.208,0.465,0.464,0.465
		c0.044,0,0.083-0.014,0.124-0.025c0.513,1.158,0.73,3.32,0.926,5.262c0.181,1.798,0.336,3.351,0.692,3.977
		c0.704,1.237,2.661,3.233,5.033,4.896c-1.677-0.479-8.406-2.579-9.677-5.831c0.141-0.08,0.24-0.225,0.24-0.397
		c0-0.256-0.208-0.464-0.465-0.464c-0.256-0.002-0.464,0.206-0.464,0.462c0,0.249,0.197,0.448,0.444,0.461
		c1.457,3.834,9.844,6.016,10.209,6.108l0.459,0.24c-0.15,0.172-0.245,0.396-0.245,0.643c0,0.543,0.44,0.983,0.983,0.983
		c0.395,0,0.733-0.233,0.89-0.569c0.283,0.384,0.912,1.099,2.092,1.774c0.767,0.44,1.98,0.813,3.12,1.511l1.241,1.108
		c0,0,0.115,0.079,0.318,0.202c0.701,0.826,1.225,1.938,1.346,3.507c0.058-0.522,0.354-1.55-0.244-2.925
		c1.168,0.539,2.848,1.062,4.225,0.484c2.368-0.994,1.691-1.798,6.217-4.567c-0.592-0.19-1.522-0.951-1.522-0.951
		S30.597,23.575,31.527,23.533z"/>
</g>
<g>
</g>
<g>
</g>
<g>
</g>
<g>
</g>
<g>
</g>
<g>
</g>
<g>
</g>
<g>
</g>
<g>
</g>
<g>
</g>
<g>
</g>
<g>
</g>
<g>
</g>
<g>
</g>
<g>
</g>
</svg>
