<?xml version="1.0" encoding="iso-8859-1"?>
<!-- Generator: Adobe Illustrator 16.0.0, SVG Export Plug-In . SVG Version: 6.00 Build 0)  -->
<!DOCTYPE svg PUBLIC "-//W3C//DTD SVG 1.1//EN" "http://www.w3.org/Graphics/SVG/1.1/DTD/svg11.dtd">
<svg version="1.1" id="Capa_1" xmlns="http://www.w3.org/2000/svg" xmlns:xlink="http://www.w3.org/1999/xlink" x="0px" y="0px"
	 width="32px" height="32px" viewBox="0 0 32 32" style="enable-background:new 0 0 32 32;" xml:space="preserve">
<g>
	<g>
		<path d="M22.184,20.268c-1.5-1.188-3.326-1.586-4.33-1.72c1.023,0.697,2.607,1.904,3.364,3.153
			c0.671,1.106,1.685,2.383,2.371,3.208c0.024,0.005,0.05,0.01,0.074,0.015c0.463-0.925,0.883-1.97,1.096-2.549
			C23.859,21.63,22.936,20.862,22.184,20.268z"/>
		<path d="M20.848,11.825c-0.009,0.729-0.048,1.532-0.16,2.176l6.688-6.73C25.275,8.331,22.807,10.073,20.848,11.825z"/>
		<path d="M25.339,19.518c-0.696-0.114-1.516-0.335-2.417-0.575c-1.354-0.363-2.824-0.759-4.025-0.802
			c1.065,0.239,2.438,0.718,3.646,1.672c0.771,0.61,1.721,1.399,2.641,2.162c1.066,0.887,2.308,1.916,3.131,2.539
			c0.205-0.143,0.385-0.312,0.533-0.512C30.162,22.223,26.199,21.456,25.339,19.518z"/>
		<path d="M23.577,12.685c-0.318,0-0.545-0.037-0.692-0.074l-4.568,4.598c1.135-0.421,2.867-0.966,4.701-1.189
			c0.328-0.04,0.653-0.063,0.976-0.074c0.655-0.628,1.509-2.573,1.963-3.731C24.88,12.583,24.104,12.685,23.577,12.685z"/>
		<path d="M26.389,12.057c-0.16,0.423-0.535,1.374-0.982,2.287c0.421-0.059,1.188-0.158,1.972-0.222
			c1.214-0.099,1.884-0.068,2.263,0.017c1.191-1.837,2.108-3.907,2.317-5.479c-1.261,0.96-3.55,2.598-5.396,3.331
			C26.503,12.013,26.445,12.035,26.389,12.057z"/>
		<path d="M20.493,12.146c-1.728,1.597-2.984,3.166-3.104,4.198c-0.041,0.355-0.065,0.707-0.076,1.054l2.914-2.933
			C20.4,13.928,20.473,13.032,20.493,12.146z"/>
		<path d="M24.02,24.989c1.356,0.227,2.727,0.23,3.73-0.177c-0.674-0.52-1.579-1.266-2.708-2.201
			C24.895,23.004,24.497,24.021,24.02,24.989z"/>
		<path d="M17.363,18.921c0.23,2.138,1.125,3.908,2.718,4.779c0.662,0.36,1.578,0.721,2.578,0.991
			c-0.636-0.79-1.388-1.783-1.938-2.688C19.986,20.788,18.334,19.569,17.363,18.921z"/>
		<path d="M27.466,16.867c-1.122-0.245-2.733-0.474-4.379-0.272c-1.511,0.185-2.971,0.604-4.058,0.978
			c1.253,0.062,2.701,0.45,4.043,0.811c0.729,0.196,1.468,0.396,2.109,0.519c-0.012-0.158-0.002-0.323,0.03-0.497
			C25.924,18.18,26.7,17.624,27.466,16.867z"/>
		<path d="M26.348,11.451c1.971-0.782,4.557-2.706,5.652-3.559c-0.021-0.589-0.184-1.063-0.523-1.367
			c-0.485-0.434-1.445-0.34-2.645,0.102l-5.436,5.469C23.907,12.124,24.854,12.044,26.348,11.451z"/>
		<path d="M25.214,14.722c-0.243,0.466-0.502,0.897-0.755,1.216c1.37,0.004,2.609,0.228,3.477,0.438
			c0.521-0.574,1.03-1.23,1.502-1.929C28.657,14.34,26.861,14.473,25.214,14.722z"/>
		<path d="M14.146,19.162c-1.004,0.134-2.83,0.533-4.33,1.72c-0.752,0.594-1.677,1.361-2.575,2.108
			c0.213,0.578,0.633,1.623,1.095,2.549c0.024-0.005,0.05-0.011,0.075-0.017c0.687-0.824,1.699-2.1,2.371-3.208
			C11.538,21.066,13.122,19.859,14.146,19.162z"/>
		<path d="M11.152,12.438c-1.959-1.752-4.428-3.494-6.528-4.554l6.688,6.73C11.2,13.971,11.16,13.167,11.152,12.438z"/>
		<path d="M9.456,20.427c1.207-0.954,2.582-1.433,3.646-1.671c-1.199,0.042-2.671,0.438-4.025,0.8
			c-0.901,0.241-1.72,0.461-2.417,0.576c-0.859,1.938-4.822,2.705-3.507,4.485c0.147,0.199,0.327,0.368,0.533,0.511
			c0.822-0.623,2.063-1.653,3.131-2.539C7.735,21.826,8.685,21.038,9.456,20.427z"/>
		<path d="M9.114,13.224c-0.147,0.038-0.374,0.075-0.692,0.075c-0.525,0-1.302-0.103-2.378-0.472
			c0.454,1.159,1.307,3.104,1.964,3.731c0.321,0.013,0.646,0.035,0.976,0.075c1.834,0.223,3.565,0.77,4.7,1.188L9.114,13.224z"/>
		<path d="M4.622,14.735c0.784,0.063,1.551,0.163,1.973,0.222c-0.449-0.912-0.824-1.864-0.985-2.287
			c-0.056-0.022-0.114-0.043-0.172-0.067c-1.846-0.733-4.134-2.371-5.396-3.331c0.209,1.572,1.125,3.643,2.317,5.48
			C2.738,14.667,3.409,14.638,4.622,14.735z"/>
		<path d="M11.506,12.76c0.021,0.887,0.094,1.781,0.268,2.319l2.915,2.933c-0.012-0.347-0.037-0.698-0.078-1.054
			C14.491,15.926,13.233,14.355,11.506,12.76z"/>
		<path d="M4.25,25.427c1.005,0.408,2.374,0.402,3.729,0.177c-0.477-0.968-0.874-1.985-1.021-2.379
			C5.829,24.162,4.923,24.907,4.25,25.427z"/>
		<path d="M11.277,22.616c-0.549,0.904-1.302,1.897-1.938,2.688c1-0.27,1.916-0.629,2.578-0.99c1.594-0.871,2.487-2.643,2.717-4.779
			C13.665,20.182,12.013,21.401,11.277,22.616z"/>
		<path d="M8.927,18.996c1.341-0.359,2.791-0.748,4.042-0.812c-1.085-0.374-2.546-0.793-4.056-0.978
			c-1.646-0.199-3.258,0.027-4.379,0.271c0.766,0.758,1.541,1.313,2.252,1.536c0.033,0.173,0.042,0.338,0.031,0.496
			C7.459,19.39,8.198,19.191,8.927,18.996z"/>
		<path d="M8.602,12.709L3.167,7.241C1.969,6.8,1.009,6.705,0.523,7.139C0.184,7.442,0.021,7.917,0,8.506
			c1.096,0.853,3.682,2.776,5.651,3.56C7.146,12.658,8.092,12.737,8.602,12.709z"/>
		<path d="M7.54,16.551c-0.252-0.318-0.511-0.75-0.754-1.216c-1.648-0.249-3.444-0.382-4.223-0.275
			c0.471,0.698,0.979,1.355,1.5,1.931C4.93,16.779,6.171,16.555,7.54,16.551z"/>
		<path d="M16.27,15.522c-0.035-0.209,0.272-0.593,0.274-0.596c0.136-0.166,0.22-0.396,0.22-0.649
			c0.002-0.338-0.146-0.631-0.367-0.789c0.646-0.861,1.924-2.145,3.147-3.078c0.438-0.335,0.595-0.78,0.438-1.257
			c-0.198-0.615-0.892-1.131-1.543-1.147c-0.513-0.011-0.918,0.273-1.133,0.807c-0.031,0.054-0.054,0.113-0.054,0.18
			c-0.001,0.205,0.165,0.373,0.371,0.373c0.205,0,0.372-0.165,0.372-0.37c0.001-0.173-0.117-0.312-0.275-0.354
			c0.211-0.293,0.483-0.363,0.711-0.351c0.531,0.015,1.118,0.449,1.28,0.951c0.08,0.249,0.087,0.615-0.342,0.942
			c-0.663,0.507-2.431,2.042-3.249,3.188c-0.025-0.004-0.053-0.009-0.079-0.01c-0.813-1.151-2.563-2.69-3.222-3.2
			c-0.425-0.33-0.417-0.696-0.334-0.945c0.164-0.5,0.754-0.932,1.286-0.942c0.228-0.012,0.5,0.061,0.709,0.355
			c-0.158,0.042-0.277,0.181-0.278,0.352c-0.001,0.206,0.165,0.373,0.37,0.374c0.206,0,0.373-0.166,0.373-0.371
			c0.001-0.066-0.021-0.126-0.051-0.18c-0.212-0.535-0.616-0.821-1.128-0.814c-0.651,0.013-1.349,0.523-1.551,1.138
			c-0.158,0.475-0.004,0.922,0.431,1.259c1.194,0.925,2.44,2.186,3.09,3.049c-0.261,0.141-0.444,0.463-0.445,0.838
			c0,0.253,0.082,0.483,0.215,0.649c0.002,0.002,0.272,0.433,0.21,0.648c-0.062,0.216-0.675,0.062-0.688,1.066
			c-0.007,0.479,0.043,1.959,0.255,3.428c0.23,1.609,0.614,3.9,0.696,4.979c0.003-0.835,0.404-3.372,0.688-5.165
			c0.257-1.624,0.41-3.193,0.428-3.604C17.128,15.412,16.305,15.733,16.27,15.522z"/>
	</g>
</g>
<g>
</g>
<g>
</g>
<g>
</g>
<g>
</g>
<g>
</g>
<g>
</g>
<g>
</g>
<g>
</g>
<g>
</g>
<g>
</g>
<g>
</g>
<g>
</g>
<g>
</g>
<g>
</g>
<g>
</g>
</svg>
