<?xml version="1.0" encoding="iso-8859-1"?>
<!-- Generator: Adobe Illustrator 16.0.0, SVG Export Plug-In . SVG Version: 6.00 Build 0)  -->
<!DOCTYPE svg PUBLIC "-//W3C//DTD SVG 1.1//EN" "http://www.w3.org/Graphics/SVG/1.1/DTD/svg11.dtd">
<svg version="1.1" id="Capa_1" xmlns="http://www.w3.org/2000/svg" xmlns:xlink="http://www.w3.org/1999/xlink" x="0px" y="0px"
	 width="31.998px" height="31.999px" viewBox="0 0 31.998 31.999" style="enable-background:new 0 0 31.998 31.999;"
	 xml:space="preserve">
<g>
	<g>
		<path d="M17.143,19.604c0,0,0.075-0.013,0.211-0.029c-0.207,0.017-0.328,0.031-0.328,0.031s0.042-0.002,0.12-0.001L17.143,19.604z
			"/>
		<path d="M31.614,6.357c0,0,0.367-0.836,0-0.883c-0.365-0.047-4.805,0.777-6.959,2.296c-1.059,0.893-4.688,2.902-6.973,7.242
			c-0.358-0.379-1.134-0.189-1.177-0.396c-0.061-0.275,0.442-0.782,0.446-0.786c0.221-0.219,0.355-0.521,0.355-0.855
			c0-0.498-0.303-0.926-0.734-1.109c0.325-0.665,0.783-1.674,0.972-2.454c0.065-0.009,0.125-0.046,0.15-0.124
			c0.04-0.114,0.078-0.228,0.115-0.341c0.071-0.216-0.271-0.293-0.346-0.08c-0.038,0.114-0.075,0.228-0.112,0.342
			c-0.026,0.079,0.003,0.139,0.054,0.173c-0.188,0.768-0.648,1.781-0.971,2.44c-0.105-0.031-0.217-0.053-0.333-0.053
			c-0.121,0-0.237,0.024-0.35,0.058c-0.417-0.637-1.013-1.646-1.312-2.621c0.055-0.039,0.09-0.104,0.069-0.188
			c-0.036-0.133-0.07-0.266-0.104-0.399c-0.058-0.221-0.396-0.119-0.34,0.101c0.036,0.133,0.07,0.267,0.106,0.399
			c0.019,0.077,0.073,0.112,0.134,0.12c0.297,0.979,0.888,1.986,1.31,2.635c-0.422,0.187-0.718,0.609-0.718,1.101
			c0,0.334,0.137,0.636,0.355,0.854c0.002,0.002,0.448,0.569,0.348,0.853c-0.077,0.216-0.676,0.154-0.966,0.691
			c-2.249-4.791-6.183-6.954-7.292-7.891C5.19,5.965,0.75,5.141,0.384,5.188c-0.364,0.047,0,0.883,0,0.883s-0.576,1.001-0.317,1.307
			C0.326,7.684,0.091,8.344,0.384,8.65c0.295,0.307-0.318,1.508,0.283,1.766c0.602,0.26,0.083,1.178,0.459,1.59
			c0.377,0.412,0.448,1.083,0.636,1.272c0.188,0.189,0.472,0.2,0.319,1.307c-0.154,1.107,0.859,1.013,1.235,2.438
			c0.378,1.424,3.11,1.66,3.11,1.66L4.978,21.05l-0.177,1.483l0.281,1.837l1.024,0.707l0.177,0.742l1.132,0.141l1.095,0.565h1.096
			h0.918l1.271-0.601c0,0,0.918-0.143,1.166-0.178c0.066-3.905,2.117-5.485,2.375-5.669c0.01,0.053,0.021,0.105,0.03,0.159
			c0.388,2.12,0.597,4.623,0.736,6.042c0-1.056,0.278-3.515,0.702-5.803c0.535,0.439,2.173,2.067,2.232,5.557
			c0.248,0.036,1.165,0.177,1.165,0.177l1.272,0.602h0.919h1.095l1.096-0.565l1.131-0.141l0.177-0.742l1.023-0.707l0.283-1.837
			l-0.177-1.484l-1.448-2.366c0,0,2.731-0.236,3.108-1.661c0.376-1.425,1.391-1.331,1.236-2.438
			c-0.153-1.107,0.129-1.119,0.317-1.308c0.188-0.188,0.259-0.859,0.637-1.271c0.375-0.412-0.142-1.331,0.459-1.59
			c0.601-0.259-0.013-1.46,0.281-1.767c0.295-0.306,0.06-0.966,0.318-1.272C32.191,7.358,31.614,6.357,31.614,6.357z M14.245,16.022
			c-0.424,0.919-6.947-4.168-6.736-4.946c0.212-0.777,1.767,0.4,2.732,0.495C11.206,11.666,14.67,15.103,14.245,16.022z
			 M7.409,10.986c0.025,0,0.047,0.001,0.062,0.001L7.409,10.986C7.409,10.987,7.409,10.986,7.409,10.986
			c-0.449-0.008-2.335-0.09-1.697-0.958C6.433,9.049,7.401,10.971,7.409,10.986z M6.816,9.111c0.331,0.06,0.365,0.525,0.204,0.617
			C6.858,9.819,6.437,9.64,6.424,9.348C6.409,9.056,6.487,9.05,6.816,9.111z M7.979,12.435c0.025,0,0.046,0,0.062,0H7.979
			L7.979,12.435c-0.449-0.008-2.334-0.09-1.697-0.958C7.003,10.498,7.972,12.419,7.979,12.435z M3.221,9.222
			c-0.508-0.085-0.722-1.045,0-1.13C3.945,8.005,5.592,8.999,5.7,9.222C5.808,9.445,3.729,9.308,3.221,9.222z M5.444,10.149
			c-0.162,0.092-0.583-0.087-0.597-0.379C4.833,9.478,4.912,9.471,5.241,9.532C5.57,9.593,5.604,10.058,5.444,10.149z M2.887,9.868
			c0.33,0.061,0.364,0.525,0.202,0.617c-0.162,0.092-0.582-0.087-0.597-0.38C2.479,9.813,2.558,9.807,2.887,9.868z M2.05,9.012
			C2.037,8.72,2.114,8.713,2.445,8.774c0.329,0.061,0.363,0.525,0.202,0.617C2.486,9.483,2.065,9.304,2.05,9.012z M1.97,11.124
			c-0.162,0.092-0.583-0.087-0.598-0.38c-0.014-0.292,0.065-0.298,0.395-0.237C2.096,10.568,2.13,11.032,1.97,11.124z M0.971,7.524
			c-0.036-0.475,0.166-0.485,1.02-0.386c0.852,0.099,0.941,0.855,0.521,1.004C2.095,8.292,1.007,8,0.971,7.524z M3.312,10.812
			c0.854,0.099,0.941,0.855,0.523,1.004c-0.419,0.15-1.507-0.142-1.543-0.617C2.258,10.723,2.458,10.713,3.312,10.812z M3.522,9.854
			c0.72-0.979,1.689,0.943,1.697,0.958c0.025,0,0.046,0.001,0.061,0.001H5.22v-0.002C4.771,10.804,2.884,10.722,3.522,9.854z
			 M4.361,11.265c0.721-0.979,1.689,0.942,1.697,0.957c0.025,0,0.046,0.001,0.063,0.001H6.058v-0.001
			C5.608,12.215,3.722,12.133,4.361,11.265z M5.673,12.442c1.105-0.118,3.626,1.249,3.791,1.555s-3.015,0.118-3.791,0
			C4.896,13.879,4.565,12.56,5.673,12.442z M9.464,14.468c1.295,0.33,4.545,2.024,4.64,2.52c0.096,0.495-4.788-0.589-5.677-0.777
			c-0.886-0.188-3.531-0.895-3.603-1.413C4.752,14.28,8.169,14.138,9.464,14.468z M10.799,11.198c0.025,0,0.046,0.001,0.062,0.001
			L10.799,11.198C10.799,11.199,10.799,11.198,10.799,11.198c-0.449-0.008-2.337-0.089-1.698-0.958
			C9.821,9.261,10.791,11.183,10.799,11.198z M7.962,8.947c0.604-0.822,1.42,0.796,1.424,0.803c0.021,0,0.039,0,0.053,0H9.386l0,0
			C9.012,9.744,7.427,9.676,7.962,8.947z M8.671,10.58c0.021,0,0.041,0,0.054,0H8.671L8.671,10.58
			c-0.372-0.006-1.958-0.074-1.422-0.803C7.854,8.955,8.667,10.573,8.671,10.58z M5.583,6.978C6.624,7.449,7.698,8.697,7.504,9.05
			C7.312,9.404,0.726,6.436,0.607,5.824C0.491,5.212,4.541,6.507,5.583,6.978z M0.387,6.684C0.372,6.392,0.45,6.386,0.779,6.447
			c0.331,0.06,0.366,0.525,0.203,0.617C0.82,7.155,0.399,6.977,0.387,6.684z M0.896,8.442c0.383-0.285,0.5-0.119,0.873,0.655
			C2.141,9.87,1.549,10.35,1.2,10.076C0.849,9.802,0.513,8.727,0.896,8.442z M1.653,11.925c-0.111,0.062-0.399-0.06-0.408-0.26
			c-0.009-0.2,0.045-0.204,0.27-0.162S1.763,11.862,1.653,11.925z M1.997,13.007c-0.318-0.088-0.376-0.549-0.117-0.989
			c0.26-0.44,2.674,0.128,2.943,0.417c0.268,0.289-0.187,1.255-0.305,1.396c-0.119,0.142-1.113-0.624-1.49-0.695
			C2.653,13.065,2.316,13.095,1.997,13.007z M2.398,14.75c0.118-0.518-0.165-1.184-0.094-1.451c0.071-0.267,2.355,0.991,2.355,0.991
			s-0.287,0.696,0,1.073C4.945,15.74,2.28,15.269,2.398,14.75z M4.966,17.482c-1.579-1.107-1.672-2.12-0.142-1.768
			c2.096,0.401,8.95,1.885,8.95,1.885v0.094C13.774,17.694,6.544,18.588,4.966,17.482z M5.468,24.042
			c-0.178-0.147-0.338-0.716-0.133-0.858c0.206-0.144,0.264-0.056,0.445,0.355C5.963,23.951,5.647,24.192,5.468,24.042z
			 M5.468,22.583c-0.178-0.147-0.338-0.716-0.133-0.858c0.206-0.144,0.264-0.056,0.445,0.355C5.963,22.49,5.647,22.732,5.468,22.583
			z M6.575,25.143c-0.226-0.056-0.617-0.495-0.497-0.713c0.121-0.219,0.213-0.165,0.558,0.124
			C6.979,24.841,6.802,25.198,6.575,25.143z M7.94,25.927c-0.23,0.021-0.745-0.267-0.701-0.513c0.043-0.246,0.147-0.224,0.566-0.063
			C8.226,25.511,8.173,25.906,7.94,25.927z M9.423,26.113c-0.194,0.127-0.783,0.114-0.861-0.124
			c-0.076-0.238,0.025-0.267,0.471-0.322C9.479,25.612,9.616,25.985,9.423,26.113z M10.886,25.989
			c-0.145,0.181-0.709,0.353-0.857,0.15c-0.146-0.202-0.059-0.263,0.348-0.453C10.782,25.496,11.03,25.808,10.886,25.989z
			 M12.573,24.877c0.141,0.565-1.295,0.401-1.153-0.494c1.412-2.953,2.55-4.232,3.132-4.748c-0.878,0.699-2.873,2.534-3.539,5.217
			c0.153,0.608-1.396,0.432-1.243-0.533c0.867-1.814,1.847-2.972,2.72-3.711c-1.27,0.861-2.64,2.171-3.091,3.988
			c0.16,0.643-1.475,0.455-1.313-0.563c1.006-2.103,2.406-3.268,3.684-3.914c-1.557,0.608-3.202,1.642-3.624,3.345
			c0.15,0.604-1.386,0.429-1.233-0.528c1.321-2.765,3.895-3.518,5.756-3.675c-1.96,0.095-4.607,0.609-5.563,2.595
			c0.024,0.643-1.491,0.14-1.136-0.795c3.219-4.213,9.007-1.74,9.007-1.74S13.374,21.651,12.573,24.877z M26.417,7.264
			c1.041-0.471,5.092-1.766,4.976-1.154c-0.117,0.612-6.702,3.58-6.896,3.227C24.302,8.983,25.376,7.735,26.417,7.264z
			 M26.328,14.282c-0.778,0.118-3.958,0.306-3.792,0c0.164-0.306,2.686-1.672,3.792-1.554
			C27.436,12.846,27.104,14.165,26.328,14.282z M27.177,15.083c-0.071,0.518-2.717,1.225-3.604,1.413
			c-0.889,0.188-5.771,1.272-5.678,0.777c0.096-0.495,3.346-2.19,4.641-2.521C23.832,14.424,27.246,14.565,27.177,15.083z
			 M26.287,10.314c0.64,0.868-1.249,0.95-1.696,0.957v0.001h-0.062c0.017,0,0.037,0,0.062-0.001
			C24.6,11.257,25.566,9.335,26.287,10.314z M25.184,9.396c0.33-0.061,0.407-0.055,0.395,0.237c-0.015,0.292-0.436,0.472-0.596,0.38
			C24.819,9.922,24.854,9.457,25.184,9.396z M28.778,9.508c-0.508,0.086-2.587,0.223-2.479,0c0.108-0.223,1.757-1.216,2.479-1.131
			C29.501,8.463,29.287,9.422,28.778,9.508z M29.508,10.392c-0.015,0.292-0.435,0.471-0.597,0.38
			c-0.162-0.092-0.129-0.557,0.201-0.617C29.442,10.093,29.521,10.099,29.508,10.392z M27.153,10.056
			c-0.014,0.292-0.437,0.471-0.598,0.38c-0.16-0.092-0.127-0.557,0.202-0.617C27.088,9.757,27.166,9.763,27.153,10.056z
			 M25.717,11.762c0.641,0.869-1.246,0.951-1.695,0.958l0,0h-0.063c0.018,0,0.037,0,0.063,0
			C24.028,12.705,24.996,10.783,25.717,11.762z M25.941,12.508L25.941,12.508h-0.062C25.896,12.509,25.916,12.508,25.941,12.508
			c0.008-0.015,0.978-1.938,1.698-0.958C28.278,12.419,26.392,12.501,25.941,12.508z M26.78,11.097L26.78,11.097l-0.06,0.001
			C26.735,11.098,26.755,11.098,26.78,11.097c0.008-0.015,0.978-1.937,1.698-0.958C29.116,11.008,27.229,11.09,26.78,11.097z
			 M28.688,11.098c0.853-0.099,1.054-0.089,1.02,0.386c-0.037,0.476-1.125,0.768-1.542,0.618
			C27.746,11.954,27.835,11.197,28.688,11.098z M29.354,9.677c-0.163-0.092-0.129-0.556,0.201-0.617
			c0.331-0.061,0.406-0.055,0.395,0.237C29.936,9.59,29.516,9.769,29.354,9.677z M30.232,10.793c0.33-0.061,0.408-0.055,0.396,0.237
			c-0.014,0.292-0.436,0.471-0.598,0.38C29.87,11.318,29.903,10.853,30.232,10.793z M29.486,8.429
			c-0.419-0.149-0.329-0.906,0.521-1.005c0.854-0.099,1.058-0.089,1.021,0.386C30.993,8.286,29.904,8.578,29.486,8.429z
			 M24.75,10.063c0.537,0.729-1.048,0.796-1.422,0.803l0,0h-0.053c0.013,0,0.032,0,0.053,0C23.333,10.859,24.146,9.241,24.75,10.063
			z M22.614,10.036c0.004-0.007,0.818-1.625,1.423-0.803C24.573,9.962,22.989,10.03,22.614,10.036L22.614,10.036h-0.053
			C22.574,10.036,22.593,10.036,22.614,10.036z M21.202,11.483c0.008-0.014,0.978-1.936,1.697-0.957
			C23.537,11.394,21.65,11.477,21.202,11.483L21.202,11.483l-0.062,0.001C21.155,11.484,21.177,11.484,21.202,11.483z
			 M21.758,11.856c0.968-0.094,2.521-1.272,2.733-0.495c0.212,0.777-6.312,5.865-6.737,4.946c-0.004-0.01-0.005-0.021-0.009-0.029
			c0.066-0.295,0.107-0.522,0.116-0.663C18.479,14.278,20.963,11.934,21.758,11.856z M21.972,26.425
			c-0.146,0.201-0.713,0.03-0.856-0.15c-0.145-0.181,0.103-0.493,0.51-0.303C22.03,26.164,22.117,26.223,21.972,26.425z
			 M23.438,26.275c-0.077,0.238-0.666,0.251-0.86,0.124c-0.195-0.127-0.056-0.501,0.389-0.446
			C23.413,26.008,23.517,26.038,23.438,26.275z M24.06,26.212c-0.23-0.021-0.284-0.417,0.136-0.575
			c0.42-0.161,0.521-0.183,0.567,0.063C24.805,25.947,24.29,26.235,24.06,26.212z M25.424,25.428
			c-0.225,0.055-0.402-0.302-0.06-0.59c0.346-0.288,0.436-0.342,0.557-0.124C26.042,24.933,25.649,25.374,25.424,25.428z
			 M26.221,22.366c0.182-0.411,0.239-0.499,0.444-0.355c0.205,0.143,0.045,0.71-0.133,0.858
			C26.354,23.018,26.037,22.776,26.221,22.366z M26.221,23.826c0.182-0.411,0.239-0.499,0.444-0.355
			c0.205,0.143,0.045,0.71-0.133,0.858C26.354,24.478,26.037,24.236,26.221,23.826z M26.032,21.346
			c0.354,0.935-1.161,1.438-1.135,0.795c-0.958-1.985-3.604-2.5-5.564-2.596c1.861,0.158,4.435,0.911,5.756,3.676
			c0.152,0.957-1.385,1.133-1.231,0.528c-0.424-1.705-2.069-2.736-3.624-3.345c1.274,0.646,2.676,1.812,3.683,3.914
			c0.16,1.018-1.475,1.206-1.312,0.562c-0.452-1.815-1.822-3.127-3.091-3.986c0.871,0.739,1.851,1.896,2.718,3.71
			c0.152,0.964-1.396,1.142-1.243,0.533c-0.665-2.684-2.659-4.519-3.537-5.218c0.581,0.517,1.721,1.796,3.132,4.748
			c0.142,0.896-1.295,1.061-1.153,0.495c-0.802-3.227-2.402-5.559-2.402-5.559S22.814,17.133,26.032,21.346z M27.034,17.769
			c-1.577,1.105-8.809,0.212-8.809,0.212v-0.095c0,0,6.854-1.483,8.95-1.885C28.707,15.648,28.612,16.662,27.034,17.769z
			 M29.604,15.036c0.117,0.518-2.549,0.989-2.263,0.612c0.287-0.376,0-1.072,0-1.072s2.284-1.259,2.354-0.992
			C29.767,13.853,29.483,14.518,29.604,15.036z M30.003,13.293c-0.319,0.088-0.655,0.059-1.031,0.129
			c-0.376,0.071-1.371,0.837-1.488,0.696c-0.118-0.142-0.575-1.108-0.307-1.397c0.27-0.289,2.686-0.857,2.943-0.417
			C30.378,12.744,30.321,13.205,30.003,13.293z M30.754,11.951c-0.009,0.199-0.296,0.322-0.406,0.259s-0.086-0.38,0.14-0.421
			C30.71,11.747,30.766,11.751,30.754,11.951z M30.802,10.361c-0.35,0.274-0.94-0.205-0.568-0.979
			c0.372-0.773,0.487-0.939,0.871-0.655C31.486,9.012,31.151,10.088,30.802,10.361z M31.614,6.97
			c-0.015,0.292-0.436,0.472-0.596,0.38c-0.162-0.092-0.128-0.557,0.201-0.617C31.55,6.671,31.628,6.678,31.614,6.97z"/>
		<path d="M14.857,19.318L14.857,19.318c0.075,0,0.117,0.001,0.117,0.001s-0.12-0.015-0.326-0.031
			C14.782,19.305,14.857,19.318,14.857,19.318z"/>
	</g>
</g>
<g>
</g>
<g>
</g>
<g>
</g>
<g>
</g>
<g>
</g>
<g>
</g>
<g>
</g>
<g>
</g>
<g>
</g>
<g>
</g>
<g>
</g>
<g>
</g>
<g>
</g>
<g>
</g>
<g>
</g>
</svg>
