<?xml version="1.0" encoding="iso-8859-1"?>
<!-- Generator: Adobe Illustrator 19.0.0, SVG Export Plug-In . SVG Version: 6.00 Build 0)  -->
<svg version="1.1" id="Layer_1" xmlns="http://www.w3.org/2000/svg" xmlns:xlink="http://www.w3.org/1999/xlink" x="0px" y="0px"
	 viewBox="0 0 512 512" style="enable-background:new 0 0 512 512;" xml:space="preserve">
<g>
	<g>
		<path d="M498.982,163.675C507.476,125.453,512,85.962,512,72.149c0-20.454-16.573-33.67-42.221-33.67
			c-34.32,0-79.14,31.123-133.213,92.504c-26.721,30.332-49.278,60.947-61.149,77.688l13.946-48.809
			c1.216-4.257-1.248-8.694-5.506-9.911c-4.254-1.215-8.693,1.248-9.911,5.506l-15.477,54.166c-0.812-0.08-1.636-0.123-2.469-0.123
			c-0.833,0-1.657,0.043-2.469,0.123l-15.477-54.166c-1.216-4.257-5.653-6.723-9.911-5.506c-4.256,1.216-6.722,5.653-5.506,9.911
			l13.946,48.809c-11.87-16.742-34.428-47.356-61.149-77.688C121.361,69.602,76.541,38.479,42.221,38.479
			C16.573,38.479,0,51.695,0,72.149c0,13.812,4.524,53.304,13.018,91.526c11.207,50.435,25.169,82.216,41.495,94.461
			c3.458,2.593,9.292,5.47,21.861,7.44c-15.059,10.797-24.526,23.864-28.223,39.043c-7.827,32.137,12.301,66.098,30.566,88.93
			c25.359,31.698,36.162,58.628,39.628,68.734c2.306,6.72,8.609,11.235,15.684,11.235h13.075c0.011,0,0.022,0.002,0.034,0.002
			c0.017,0,0.034-0.003,0.051-0.004c6.981-0.019,13.225-4.431,15.548-10.99c2.954-8.348,9.668-23.816,21.433-33.621
			c33.733-28.111,49.944-56.255,57.603-74.916c2.877-7.013,4.94-14.789,6.13-23.116l6.505-45.536
			c0.527,0.033,1.056,0.056,1.591,0.056c0.534,0,1.064-0.022,1.591-0.056l6.505,45.536c1.19,8.327,3.252,16.103,6.13,23.116
			c7.66,18.661,23.87,46.805,57.603,74.916c11.765,9.805,18.479,25.274,21.435,33.622c2.323,6.56,8.567,10.97,15.547,10.989
			c0.017,0,0.034,0.004,0.052,0.004c0.011,0,0.022-0.002,0.034-0.002h13.075c7.076,0,13.378-4.515,15.684-11.235
			c3.467-10.106,14.27-37.035,39.628-68.734c18.264-22.831,38.394-56.792,30.566-88.93c-3.697-15.18-13.166-28.248-28.224-39.044
			c12.569-1.971,18.405-4.846,21.862-7.44C473.813,245.892,487.775,214.11,498.982,163.675z M166.803,145.468
			c23.951,27.572,44.161,54.864,55.532,70.828c-28.053-16.474-82.153-51.512-140.982-106.981
			C104.294,114.992,132.902,125.776,166.803,145.468z M16.033,72.149c0-5.303,2.551-17.637,26.188-17.637
			c17.009,0,46.118,10.624,92.448,56.472C73.361,83.829,33.058,86.361,17.093,89.198C16.393,82.013,16.033,76.148,16.033,72.149z
			 M64.134,245.31c-22.982-17.237-38.958-92.876-45.192-140.158c5.78-1.115,17.311-2.511,34.25-0.815
			c82.661,82.427,158.62,125.119,177.69,135.175v5.045c-13.034,1.422-42.347,4.406-73.036,6.101
			C83.022,254.793,67.2,247.609,64.134,245.31z M63.73,308.415c4.016-16.491,17.855-30.141,41.11-40.584
			c3.647,0.096,7.55,0.149,11.745,0.149c11.702,0,25.625-0.397,42.218-1.314c14.8-0.819,29.272-1.933,41.804-3.03L65.39,338.003
			C61.615,325.401,61.981,315.592,63.73,308.415z M110.183,409.981c-5.26-8.273-11.515-17.158-18.946-26.448
			c-9.04-11.299-15.451-21.464-19.893-30.537c0.131-0.064,0.265-0.114,0.394-0.186l138.423-76.133L110.183,409.981z
			 M142.037,457.485h-8.007c-0.28,0-0.451-0.208-0.518-0.404c-2.472-7.208-6.937-18.388-14.488-32.165L220.11,290.134
			L142.037,457.485z M232.032,328.607c-1.003,7.015-2.715,13.507-5.091,19.296c-5.201,12.671-17.698,36.566-44.746,61.428
			l55.212-118.346L232.032,328.607z M265.086,260.275c0,5.01-4.076,9.086-9.086,9.086s-9.086-4.076-9.086-9.086v-25.653
			c0-5.01,4.076-9.086,9.086-9.086s9.086,4.076,9.086,9.086V260.275z M469.779,54.513c23.636,0,26.188,12.334,26.188,17.637
			c0,3.999-0.359,9.863-1.059,17.048c-15.965-2.836-56.27-5.368-117.577,21.787C423.656,65.139,452.766,54.513,469.779,54.513z
			 M345.201,145.464c22.055-12.807,52.71-27.975,85.38-36.089c-58.735,55.36-112.84,90.412-140.906,106.904
			C301.044,200.318,321.241,173.045,345.201,145.464z M285.059,347.902c-2.376-5.788-4.089-12.279-5.09-19.296l-5.374-37.622
			l55.212,118.346C302.756,384.468,290.259,360.573,285.059,347.902z M378.489,457.08c-0.067,0.197-0.238,0.405-0.518,0.405h-8.007
			L291.89,290.134l101.086,134.782C385.425,438.692,380.961,449.874,378.489,457.08z M420.764,383.533
			c-7.431,9.29-13.687,18.174-18.946,26.448L301.84,276.677l138.423,76.133c0.129,0.071,0.263,0.122,0.394,0.185
			C436.214,362.068,429.803,372.234,420.764,383.533z M448.27,308.415c1.749,7.178,2.114,16.986-1.66,29.589l-135.217-74.369
			c12.533,1.098,27.005,2.213,41.804,3.03c16.598,0.918,30.514,1.314,42.218,1.314c4.195,0,8.098-0.052,11.745-0.149
			C430.416,278.274,444.254,291.923,448.27,308.415z M447.866,245.31c-3.067,2.299-18.891,9.483-93.711,5.35
			c-30.689-1.694-60.002-4.68-73.036-6.101v-5.045c19.067-10.054,95-52.733,177.643-135.13c16.854-1.691,28.457-0.308,34.293,0.796
			C486.818,152.464,470.844,228.076,447.866,245.31z"/>
	</g>
</g>
<g>
</g>
<g>
</g>
<g>
</g>
<g>
</g>
<g>
</g>
<g>
</g>
<g>
</g>
<g>
</g>
<g>
</g>
<g>
</g>
<g>
</g>
<g>
</g>
<g>
</g>
<g>
</g>
<g>
</g>
</svg>
