<svg id="Layer_1" viewBox="0 0 100 100" xmlns="http://www.w3.org/2000/svg" data-name="Layer 1"><path d="m61.15 67.69c.14 3.76-1.34 6.93-3.11 10a29.46 29.46 0 0 0 -3.62 8.17c-.15.68-.48 1.23-1.28 1.27a1.43 1.43 0 0 1 -1.42-1.29c-.82-3.84-2.72-7.3-4.56-10.74-.84-1.55-1.48-3.21-2.24-4.86 0 0-.08 0-.14 0a28.78 28.78 0 0 1 -11.41 4.86 62.72 62.72 0 0 1 -10.57 1.4c-1.69.08-3.38.25-5.05.48a10.43 10.43 0 0 0 -2.87.78c-2.22 1-3.3-.22-3.59-2.09a10.74 10.74 0 0 1 .64-5.67 23.35 23.35 0 0 1 4.23-6.68 32.9 32.9 0 0 1 8.64-7.25l.57-.37c-.18-.92-.39-1.8-.54-2.69-.93-5.72.54-10.94 3.44-15.82 1.69-2.83 3.52-5.58 5.22-8.41a24.19 24.19 0 0 0 3.19-7.78 30.86 30.86 0 0 0 .24-8.69 13.47 13.47 0 0 1 0-2.46 1.24 1.24 0 0 1 .57-.9 1.63 1.63 0 0 1 1.19.18 2.94 2.94 0 0 1 .76.87 57.7 57.7 0 0 1 11 25.31c.86 5 1.77 10 1.57 15.12-.06 1.6-.28 3.2-.43 4.79 0 .3 0 .6-.09 1.08a12 12 0 0 0 1.06-.67c2.61-2.16 5.26-4.27 7.79-6.52a74.58 74.58 0 0 1 8.66-7.06 27 27 0 0 1 16.09-4.74 11.62 11.62 0 0 1 2.19.28 1.73 1.73 0 0 1 1 3 7.28 7.28 0 0 1 -.93.91 32.28 32.28 0 0 0 -7.78 10.17 52 52 0 0 1 -3.35 5.73 23.87 23.87 0 0 1 -14.29 10 7.17 7.17 0 0 0 -.78.29zm-47.43 7.58c1.91-.33 3.68-.71 5.48-.92 3.58-.41 7.18-.61 10.74-1.09a33 33 0 0 0 10.44-3.12 13.46 13.46 0 0 0 7.25-8.45c.37-1.29.7-2.59 1-3.9a35 35 0 0 0 .87-11.39c-.42-4-1-7.91-1.76-11.84a52.38 52.38 0 0 0 -7.51-19.29c-.17-.26-.39-.5-.76-1 0 1.4.06 2.48 0 3.56a33.62 33.62 0 0 1 -.47 3.77 25.69 25.69 0 0 1 -3.47 8.52c-1.69 2.84-3.51 5.59-5.21 8.42a21.29 21.29 0 0 0 -3.32 11.86 10.73 10.73 0 0 0 .82 4.28c.72-.2 1.34-.4 2-.54a13.22 13.22 0 0 1 7.58.11c2.63.94 4.08 3.16 3.62 5.62a5.93 5.93 0 0 1 -4.24 4.83c-2.42.77-4.54 0-6.47-1.46a12.7 12.7 0 0 1 -3.37-4.09c-.18-.34-.39-.66-.58-1a3.09 3.09 0 0 0 -.45.16c-.27.14-.53.3-.79.46a29.73 29.73 0 0 0 -8.67 8.23 28.39 28.39 0 0 0 -2.35 4.34 6.26 6.26 0 0 0 -.38 3.93zm47.14-10.08c.67-.17 1.22-.29 1.75-.46a21.89 21.89 0 0 0 11.78-9 61.77 61.77 0 0 0 3.11-5.42 33.81 33.81 0 0 1 7.5-9.92 3.32 3.32 0 0 0 .48-.66 24.41 24.41 0 0 0 -13.38 3.27 52.33 52.33 0 0 0 -9.59 7.36 73 73 0 0 1 -10.51 8.34 3.29 3.29 0 0 0 -1.62 2.19 15.91 15.91 0 0 1 -2.54 6 2.49 2.49 0 0 0 -.42 2.54c.65 1.66 1.3 3.31 2.05 4.91 1.09 2.32 2.26 4.59 3.39 6.88a3.62 3.62 0 0 0 .26.37c1.14-2.06 2.28-4 3.29-6a39.81 39.81 0 0 0 1.89-4.49 5.6 5.6 0 0 0 .31-3.35 8.41 8.41 0 0 1 -1.18-.16 15.47 15.47 0 0 1 -2.7-.87 2.48 2.48 0 0 1 -1.47-2.78 2.94 2.94 0 0 1 2.54-2.12 4.22 4.22 0 0 1 4.4 2.18c.22.32.41.71.66 1.19zm-32.21-8.13a10.16 10.16 0 0 0 2.35 3.58 6.65 6.65 0 0 0 3 1.79 3.71 3.71 0 0 0 4.62-3.55c-.09-1.46-1.22-2.14-2.49-2.47a11.85 11.85 0 0 0 -7.48.65z"/></svg>