<?xml version="1.0" encoding="iso-8859-1"?>
<!-- Generator: Adobe Illustrator 16.0.0, SVG Export Plug-In . SVG Version: 6.00 Build 0)  -->
<!DOCTYPE svg PUBLIC "-//W3C//DTD SVG 1.1//EN" "http://www.w3.org/Graphics/SVG/1.1/DTD/svg11.dtd">
<svg version="1.1" id="Capa_1" xmlns="http://www.w3.org/2000/svg" xmlns:xlink="http://www.w3.org/1999/xlink" x="0px" y="0px"
	 width="31.999px" height="31.999px" viewBox="0 0 31.999 31.999" style="enable-background:new 0 0 31.999 31.999;"
	 xml:space="preserve">
<g>
	<path d="M24.911,14.756c1.5-0.901,3.04-1.678,4.243-2.166c1.367-0.708-0.182-3.275-1.559-6.286c-1.15-2.514-1.981-5.564-2.761-5.94
		c-3.327-1.619-6.478,9.014-7.073,13.712c-0.248-0.276-0.591-0.466-0.989-0.504c-0.18-0.017-0.354,0.003-0.519,0.046
		c-0.132-0.891-0.372-1.649-0.578-2.293c-0.367-1.146-0.612-1.916,0.033-2.522c0.119,0.013,0.264-0.019,0.401-0.108
		c0.233-0.152,0.344-0.396,0.247-0.545c-0.097-0.148-0.365-0.144-0.599,0.008c-0.224,0.147-0.331,0.376-0.253,0.526
		c-0.689,0.691-0.408,1.572-0.043,2.711c0.207,0.645,0.448,1.406,0.576,2.299c-0.168,0.071-0.321,0.17-0.453,0.295
		c-0.706-0.727-1.083-1.373-1.395-1.916c-0.563-0.978-0.931-1.606-2.616-1.69c-0.074-0.135-0.285-0.209-0.525-0.164
		c-0.274,0.051-0.47,0.234-0.437,0.407c0.032,0.174,0.282,0.274,0.556,0.222c0.186-0.035,0.328-0.131,0.396-0.242
		c1.563,0.076,1.891,0.639,2.432,1.579c0.321,0.557,0.707,1.22,1.436,1.969c-0.173,0.221-0.289,0.491-0.317,0.791
		c-0.009,0.097-0.009,0.191,0,0.284C10.853,12.97,0.624,9.463,0.008,13.066c-0.148,0.851,1.846,3.305,3.218,5.705
		c1.643,2.874,2.827,5.629,4.198,4.931c1.098-0.693,2.625-1.492,4.233-2.185c-0.107,0.104-5.147,5.084-0.587,8.302
		c4.609,3.252,7.608,1.59,8.334,1.312c0.631-0.243,0.648-4.917,1.414-6.527c0.132,0.212,0.236,0.374,0.301,0.462
		c0.613,0.839,1.441,0.521,0.968-0.602c-0.047-0.111-0.116-0.28-0.203-0.491c1.648,0.129,5.735,3.067,6.322,2.682
		c0.649-0.428,3.749-1.896,3.793-7.536C32.042,13.538,25.059,14.73,24.911,14.756z M28.634,11.271
		c0.272,0.396-0.382,0.736-1.125,1.246c-0.743,0.51-6.688,3.386-6.96,2.99c2.159-1.488,5.23-3.917,5.973-4.427
		C27.266,10.57,28.361,10.874,28.634,11.271z M19.725,16.318c-0.402,0.054-0.908-1.189-0.649-1.433
		c0.161-0.012,0.712,1.118,1.44,1.041c0.953-0.102,4.201-1.687,3.883-1.178C23.865,15.633,20.128,16.264,19.725,16.318z
		 M28.207,9.477c0.08,0.495-0.609,1.019-1.539,1.168c-0.929,0.15-6.497,4.898-6.577,4.403C20.05,14.687,25.45,9,26.38,8.852
		C27.309,8.702,28.127,8.982,28.207,9.477z M26.801,8.417c-0.306,0.059-1.008,0.15-1.916,0.761
		c-2.074,1.396-5.379,6.225-5.416,5.516c0.025-0.323,3.367-5.031,5.233-6.721c0.795-0.72,0.752-1.17,1.571-1.448
		C27.091,6.249,27.807,8.224,26.801,8.417z M21.055,11.582c0.012-0.11,0.104-0.19,0.207-0.179c0.102,0.011,0.137,0.063,0.125,0.172
		c-0.012,0.11-0.312,0.434-0.387,0.428C20.898,11.992,21.043,11.692,21.055,11.582z M21.566,10.801
		c0.015-0.135,0.127-0.233,0.252-0.22c0.125,0.013,0.168,0.077,0.154,0.211c-0.015,0.135-0.382,0.531-0.473,0.524
		C21.375,11.303,21.553,10.934,21.566,10.801z M22.145,9.658c0.01-0.208,0.176-0.368,0.367-0.357c0.193,0.01,0.266,0.103,0.256,0.31
		c-0.011,0.208-0.541,0.846-0.681,0.842C21.895,10.443,22.133,9.865,22.145,9.658z M25.491,4.345c0.478,0.156,0.542,0.605,0.248,1.5
		s-2.464,3.356-2.814,3.259c-0.477-0.156,0.876-2.528,1.171-3.423C24.389,4.786,25.016,4.188,25.491,4.345z M21.779,3.582
		c0.559-1.217,1.537-1.96,2.187-1.663c0.649,0.298,0.724,1.525,0.166,2.741c-0.558,1.215-4.659,10.277-5.309,9.979
		C17.441,14.128,21.223,4.797,21.779,3.582z M19.154,25.214c0.102,0.067,0.16,0.789,0.064,0.941
		c-0.098,0.153-0.195,0.184-0.339,0.093c-0.144-0.089-0.22-0.754-0.124-0.907C18.854,25.189,19.014,25.124,19.154,25.214z
		 M19.171,24.163c0.097-0.151,0.257-0.217,0.397-0.127c0.102,0.068,0.16,0.789,0.063,0.942c-0.096,0.153-0.194,0.183-0.338,0.093
		C19.15,24.982,19.075,24.317,19.171,24.163z M17.656,24.666c-0.125-0.47-0.135-0.99,0.033-1.002c0.17-0.012,0.574,0.911,0.8,1.505
		C18.714,25.763,17.783,25.137,17.656,24.666z M17.23,27.8c-0.094-0.907-0.186-2.277-0.01-2.13c0.178,0.146,0.449,1.083,0.577,1.842
		C17.926,28.27,17.325,28.708,17.23,27.8z M16.898,22.78c-0.126-0.47-0.135-0.991,0.033-1.002c0.168-0.011,0.574,0.912,0.799,1.505
		C17.955,23.875,17.023,23.25,16.898,22.78z M18.127,27.85c0.113-0.179,0.299-0.254,0.467-0.149
		c0.117,0.079,0.186,0.921,0.072,1.102c-0.111,0.179-0.229,0.214-0.395,0.108C18.104,28.806,18.016,28.029,18.127,27.85z
		 M18.602,27.475c-0.14-0.087-0.215-0.737-0.121-0.887s0.25-0.213,0.39-0.125c0.099,0.065,0.155,0.771,0.062,0.921
		C18.837,27.533,18.74,27.563,18.602,27.475z M17.982,23.624c-0.125-0.471-0.135-0.99,0.033-1.002
		c0.17-0.011,0.573,0.912,0.799,1.505C19.04,24.72,18.107,24.095,17.982,23.624z M16.929,21.214
		c-0.216-0.807-0.232-1.698,0.057-1.718c0.29-0.02,0.983,1.562,1.368,2.578C18.74,23.091,17.145,22.019,16.929,21.214z
		 M17.457,24.802c0.225,0.594-0.707-0.032-0.833-0.502c-0.125-0.472-0.135-0.992,0.034-1.002
		C16.828,23.285,17.232,24.208,17.457,24.802z M16.919,28.157c-0.613,0.17-2.736-2.559-2.854-2.983
		c-0.118-0.426-0.331-0.738,0.283-0.909c0.614-0.171,1.82-0.134,1.938,0.292C16.405,24.981,16.581,26.917,16.919,28.157z
		 M16.502,22.889c-0.048,0.438-1.234,0.668-1.866,0.599c-0.633-0.07-0.474-0.413-0.425-0.852c0.049-0.438,1.706-3.475,2.339-3.404
		C16.414,20.51,16.551,22.45,16.502,22.889z M11.948,21.095c-0.599-0.037,2.583-1.754,3.22-2.469
		c0.488-0.547-0.109-1.652-0.005-1.777c0.348-0.067,1.063,1.067,0.785,1.364C15.669,18.51,12.979,21.178,11.948,21.095z
		 M1.776,13.266c0.137-0.701,1.312-1.063,2.625-0.807c1.313,0.256,11.099,2.622,10.709,4.043c-0.137,0.702-9.891-1.247-11.204-1.503
		C2.593,14.743,1.64,13.968,1.776,13.266z M11.699,16.736c-0.039,0.064-0.477,0.12-0.573,0.065
		c-0.096-0.056-0.117-0.114-0.066-0.204c0.051-0.09,0.169-0.118,0.266-0.063C11.421,16.588,11.749,16.646,11.699,16.736z
		 M10.849,16.74c-0.047,0.078-0.584,0.146-0.702,0.079c-0.118-0.065-0.144-0.139-0.081-0.249c0.062-0.108,0.207-0.144,0.325-0.077
		C10.509,16.56,10.911,16.631,10.849,16.74z M9.806,16.714C9.727,16.83,8.9,16.888,8.725,16.776
		c-0.174-0.112-0.208-0.226-0.103-0.388c0.104-0.162,0.33-0.204,0.504-0.091C9.301,16.408,9.91,16.552,9.806,16.714z M2.858,15.918
		c0.15-0.479,1-0.637,1.899-0.354c0.898,0.282,3.614,0.565,3.463,1.044c-0.126,0.342-3.391,0.669-4.289,0.387
		C3.034,16.713,2.707,16.398,2.858,15.918z M4.175,17.826c0.703-0.503,1.043-0.206,2.092-0.433c2.46-0.531,8.234-0.501,8.512-0.334
		c0.555,0.444-5.296,0.312-7.639,1.186c-1.025,0.382-1.509,0.899-1.735,1.114C4.662,20.062,3.473,18.329,4.175,17.826z
		 M5.446,21.118c-0.356-0.354-0.106-1.182,0.558-1.85s8.43-1.742,8.7-1.498c0.356,0.354-6.748,2.11-7.412,2.778
		C6.628,21.217,5.802,21.471,5.446,21.118z M8.322,22.324c-0.848,0.307-1.504,0.641-1.668,0.188
		c-0.164-0.453,0.227-1.521,1.076-1.828c0.848-0.306,4.611-1.385,7.079-2.272C14.972,18.863,9.169,22.017,8.322,22.324z
		 M18.896,30.839c-1.937,1.729-8.077-1.481-8.932-3.375c-0.855-1.896,1.94-5.521,1.94-5.521l4.369-3.225
		c0,0-4.636,4.811-2.899,7.508S20.832,29.111,18.896,30.839z M19.279,29.233c-0.059,0.094-0.119,0.112-0.206,0.057
		c-0.087-0.055-0.11-0.175-0.052-0.269c0.06-0.093,0.133-0.418,0.22-0.364C19.305,28.699,19.339,29.139,19.279,29.233z
		 M19.43,28.261c-0.06,0.093-0.119,0.111-0.207,0.057c-0.086-0.055-0.109-0.175-0.051-0.269s0.131-0.419,0.219-0.364
		C19.453,27.726,19.488,28.167,19.43,28.261z M19.553,27.292c-0.068,0.087-0.131,0.098-0.211,0.033
		c-0.08-0.063-0.089-0.186-0.02-0.271c0.07-0.086,0.179-0.401,0.26-0.336C19.639,26.764,19.622,27.206,19.553,27.292z
		 M19.741,26.417c-0.069,0.087-0.132,0.098-0.212,0.033c-0.079-0.063-0.088-0.186-0.02-0.271c0.069-0.086,0.18-0.401,0.26-0.336
		C19.826,25.889,19.811,26.331,19.741,26.417z M19.982,25.55c-0.069,0.086-0.131,0.098-0.211,0.032
		c-0.082-0.063-0.09-0.186-0.021-0.271s0.179-0.4,0.259-0.336C20.066,25.022,20.051,25.464,19.982,25.55z M20.279,24.716
		c-0.084,0.072-0.146,0.073-0.213-0.003c-0.068-0.077-0.058-0.198,0.025-0.272c0.083-0.073,0.244-0.364,0.312-0.288
		C20.452,24.209,20.361,24.642,20.279,24.716z M21.459,20.524c-0.602-0.906-1.48-2.391-1.297-2.614s0.898,0.31,1.429,0.954
		C22.12,19.509,22.061,21.43,21.459,20.524z M22.102,20.567c0.106-0.13,0.524,0.181,0.834,0.557c0.309,0.376,0.273,1.498-0.078,0.97
		C22.508,21.565,21.994,20.698,22.102,20.567z M22.047,19.194c0.107-0.13,0.525,0.181,0.833,0.557
		c0.31,0.378,0.274,1.498-0.075,0.97C22.453,20.191,21.939,19.324,22.047,19.194z M22.682,22.405c0.18,0.011,0.676,0.461,0.666,0.63
		c-0.011,0.168-0.093,0.231-0.273,0.221c-0.182-0.012-0.733-0.479-0.729-0.601C22.355,22.486,22.5,22.394,22.682,22.405z
		 M23.139,20.91c0.106-0.13,0.524,0.182,0.834,0.558c0.309,0.377,0.273,1.498-0.078,0.969C23.544,21.907,23.029,21.041,23.139,20.91
		z M23.441,19.858c0.106-0.131,0.524,0.181,0.834,0.557c0.309,0.376,0.273,1.498-0.077,0.97
		C23.848,20.855,23.333,19.989,23.441,19.858z M23.201,19.494c-0.385-0.216-1.883-1.458-2.999-2.093
		c0.313-0.554,3.743-0.132,4.129,0.084c0.385,0.217,0.756,0.287,0.444,0.842C24.463,18.882,23.586,19.711,23.201,19.494z
		 M22.482,23.626c-0.107,0.025-0.512-0.153-0.529-0.226c-0.023-0.101,0.309-0.062,0.416-0.086s0.214,0.036,0.236,0.137
		C22.629,23.552,22.591,23.602,22.482,23.626z M23.334,23.871c-0.109,0.006-0.479-0.237-0.484-0.312
		c-0.006-0.104,0.313-0.008,0.424-0.016c0.11-0.006,0.205,0.072,0.211,0.176S23.445,23.866,23.334,23.871z M24.18,24.182
		c-0.109,0.006-0.479-0.239-0.484-0.313c-0.004-0.103,0.314-0.008,0.425-0.015c0.11-0.006,0.205,0.072,0.21,0.175
		C24.335,24.132,24.29,24.176,24.18,24.182z M24.271,23.604c-0.181-0.011-0.732-0.479-0.729-0.6c0.01-0.168,0.156-0.261,0.336-0.25
		c0.182,0.011,0.676,0.461,0.666,0.629C24.535,23.553,24.453,23.615,24.271,23.604z M25,24.539
		c-0.109,0.007-0.479-0.237-0.484-0.312c-0.004-0.104,0.314-0.009,0.424-0.015c0.111-0.007,0.205,0.071,0.211,0.175
		C25.156,24.489,25.109,24.533,25,24.539z M25.053,23.257c0.178,0.011,0.661,0.45,0.65,0.614c-0.01,0.165-0.09,0.227-0.266,0.216
		c-0.178-0.011-0.717-0.468-0.713-0.587C24.734,23.336,24.877,23.246,25.053,23.257z M25.041,21.699
		c-0.018-0.229,1.043,0.645,1.727,1.249c0.683,0.605-0.024,0.839-0.565,0.293C25.659,22.696,25.057,21.928,25.041,21.699z
		 M25.859,25.003c-0.111-0.008-0.448-0.292-0.445-0.367c0.006-0.104,0.312,0.026,0.423,0.034c0.11,0.007,0.195,0.095,0.188,0.197
		C26.02,24.971,25.969,25.01,25.859,25.003z M26.736,25.449c-0.11-0.007-0.447-0.292-0.444-0.367
		c0.006-0.103,0.313,0.027,0.423,0.034c0.11,0.007,0.195,0.096,0.188,0.198C26.896,25.417,26.848,25.455,26.736,25.449z
		 M26.744,24.698c-0.211-0.013-0.855-0.559-0.852-0.701c0.012-0.195,0.183-0.304,0.393-0.292c0.211,0.014,0.79,0.539,0.777,0.735
		C27.05,24.637,26.955,24.711,26.744,24.698z M24.682,20.289c-0.277-0.344,0.396-1.346,0.894-1.745
		c0.495-0.398,0.626-0.044,0.903,0.301c0.275,0.344,1.256,3.66,0.761,4.059C26.43,21.906,24.957,20.634,24.682,20.289z
		 M28.266,26.073c-2.533,0.565,0.65-4.19-0.529-7.175c-1.18-2.983-7.791-2.021-7.791-2.021l5.166-1.669c0,0,4.576-0.159,5.617,1.641
		C31.77,18.647,30.799,25.508,28.266,26.073z"/>
</g>
<g>
</g>
<g>
</g>
<g>
</g>
<g>
</g>
<g>
</g>
<g>
</g>
<g>
</g>
<g>
</g>
<g>
</g>
<g>
</g>
<g>
</g>
<g>
</g>
<g>
</g>
<g>
</g>
<g>
</g>
</svg>
