<svg width="47" height="70" viewBox="0 0 47 70" fill="none" xmlns="http://www.w3.org/2000/svg">
<path d="M23.5796 34.8222C23.5796 28.4116 28.6486 23.2148 34.9015 23.2148C41.1545 23.2148 46.2235 28.4118 46.2235 34.8222C46.2235 41.2329 41.1543 46.4295 34.9015 46.4295C28.6485 46.4295 23.5796 41.2327 23.5796 34.8222Z" fill="#00BCFF"/>
<path d="M0.936523 58.0372C0.936523 51.6266 6.00555 46.4298 12.2585 46.4298L18.2921 43.164L23.5804 46.4298V58.0372C23.5804 64.4479 18.5114 69.6446 12.2585 69.6446C6.00555 69.6446 0.936523 64.4477 0.936523 58.0372Z" fill="#00CF7F"/>
<path d="M23.5803 0L17.4194 10.9731L23.5803 23.2147H34.7434C40.9965 23.2147 46.0653 18.0179 46.0653 11.6074C46.0653 5.19681 40.9963 0 34.7434 0H23.5803Z" fill="#FF7361"/>
<path d="M0.777344 11.6074C0.777344 18.0179 5.84637 23.2147 12.0993 23.2147L18.1053 25.593L23.58 23.2147V0H12.0992C5.84636 0 0.777344 5.19681 0.777344 11.6074Z" fill="#FF4D12"/>
<path d="M0.936523 34.8223C0.936523 41.233 6.00555 46.4297 12.2585 46.4297H23.5804V23.2148H12.2585C6.00555 23.2148 0.936523 28.4118 0.936523 34.8223Z" fill="#B659FF"/>
</svg>
