<svg width="34" height="27" viewBox="0 0 34 27" fill="none" xmlns="http://www.w3.org/2000/svg">
<path d="M7.00337 10.4743C7.41819 7.86679 10.6775 5.08155 13.2257 5.02229C13.4035 5.02229 13.5813 4.96303 13.6998 4.84451C13.8183 4.78525 13.9368 4.72599 13.9961 4.54821C14.885 2.88892 14.4109 1.58519 12.9294 0.518499C11.2109 -0.72597 8.48488 0.518499 7.12189 1.64445C3.68478 4.48895 0.188418 9.40747 0.366199 14.0891C-0.226406 17.23 -0.107885 20.6078 0.781022 23.393C1.37363 25.1708 3.09218 26.0598 4.86999 26.1783C6.64781 26.2969 10.322 26.8301 11.922 25.7635C13.522 24.6968 13.6405 22.6226 13.8183 20.8449C13.9961 18.8893 14.5294 15.2151 12.8702 13.6743C11.2109 12.1928 6.47002 13.7928 7.00337 10.4743Z" fill="#CBCBCB"/>
<path d="M26.559 10.4743C26.9739 7.86679 30.2331 5.08155 32.7814 5.02229C32.9592 5.02229 33.1369 4.96303 33.2555 4.84451C33.3741 4.78525 33.4925 4.72599 33.5519 4.54821C34.4408 2.88892 33.9667 1.58519 32.4852 0.518499C30.7666 -0.72597 28.0406 0.518499 26.6776 1.64445C23.2405 4.48895 19.7441 9.40757 19.9219 14.0891C19.3293 17.23 19.4478 20.6078 20.3366 23.393C20.9292 25.1708 22.6478 26.0598 24.4257 26.1783C26.2035 26.2969 29.8776 26.8301 31.4777 25.7635C33.0776 24.6968 33.1962 22.6226 33.374 20.8449C33.5518 18.8893 34.0851 15.2151 32.4258 13.6743C30.7665 12.1928 25.9664 13.7928 26.559 10.4743Z" fill="#CBCBCB"/>
</svg>
